<svg width="27" height="27" viewBox="0 0 27 27" fill="none" xmlns="http://www.w3.org/2000/svg">
<path d="M20.712 24.3333C19.6773 21.1346 17.676 19.1532 15.024 16.8639C17.6192 14.7892 20.8442 13.6614 24.1667 13.6666V2.99992H25.5107C26.2413 2.99992 26.8333 3.59325 26.8333 4.32392V25.6759C26.8309 26.0261 26.6908 26.3612 26.4433 26.609C26.1958 26.8567 25.8608 26.9971 25.5107 26.9999H1.48934C1.13842 26.9996 0.802001 26.8599 0.553991 26.6117C0.305981 26.3634 0.166672 26.0268 0.166672 25.6759V4.32392C0.169112 3.97376 0.309205 3.63861 0.556689 3.39088C0.804172 3.14314 1.13918 3.00271 1.48934 2.99992H5.50001V0.333252H8.16667V5.66658H2.83334V14.9999C9.79334 14.9999 15.716 18.2826 17.9173 24.3333H20.712ZM21.5 0.333252V5.66658H10.8333V2.99992H18.8333V0.333252H21.5ZM19.5 12.3333C18.9696 12.3333 18.4609 12.1225 18.0858 11.7475C17.7107 11.3724 17.5 10.8637 17.5 10.3333C17.5 9.80282 17.7107 9.29411 18.0858 8.91904C18.4609 8.54397 18.9696 8.33325 19.5 8.33325C20.0304 8.33325 20.5391 8.54397 20.9142 8.91904C21.2893 9.29411 21.5 9.80282 21.5 10.3333C21.5 10.8637 21.2893 11.3724 20.9142 11.7475C20.5391 12.1225 20.0304 12.3333 19.5 12.3333Z" fill="white"/>
</svg>
