<svg width="279" height="72" viewBox="0 0 279 72" fill="none" xmlns="http://www.w3.org/2000/svg">
    <defs>
        <linearGradient id="paint0_linear_4_19" x1="-6.00001" y1="-3.49997" x2="288" y2="78" gradientUnits="userSpaceOnUse">
            <stop stop-color="#DA85FF"/>
            <stop offset="1" stop-color="#B056E3"/>
        </linearGradient>
        <linearGradient id="paint1_linear_4_19" x1="0" y1="0" x2="277.852" y2="0.701987" gradientUnits="userSpaceOnUse">
            <stop stop-color="#9621BF"/>
            <stop offset="0.234375" stop-color="#F97AFC"/>
            <stop offset="0.598958" stop-color="#80359A"/>
            <stop offset="1" stop-color="#5D2B65"/>
        </linearGradient>
    </defs>
    <path d="M0 0H279V72H0V0Z" fill="url(#paint0_linear_4_19)"/>
<path d="M0 0V-4H-4V0H0ZM279 0H283V-4H279V0ZM279 72V76H283V72H279ZM0 72H-4V76H0V72ZM0 4H279V-4H0V4ZM275 0V72H283V0H275ZM279 68H0V76H279V68ZM4 72V0H-4V72H4Z" fill="url(#paint1_linear_4_19)"/>
</svg>
