<svg width="27" height="30" viewBox="0 0 27 30" fill="none" xmlns="http://www.w3.org/2000/svg">
<path d="M13.5 0.333252L26.1667 7.66658V22.3333L13.5 29.6666L0.833344 22.3333V7.66658L13.5 0.333252ZM13.5 18.9999C14.5609 18.9999 15.5783 18.5785 16.3284 17.8283C17.0786 17.0782 17.5 16.0608 17.5 14.9999C17.5 13.9391 17.0786 12.9216 16.3284 12.1715C15.5783 11.4213 14.5609 10.9999 13.5 10.9999C12.4391 10.9999 11.4217 11.4213 10.6716 12.1715C9.92144 12.9216 9.50001 13.9391 9.50001 14.9999C9.50001 16.0608 9.92144 17.0782 10.6716 17.8283C11.4217 18.5785 12.4391 18.9999 13.5 18.9999V18.9999Z" fill="white"/>
</svg>
