<svg width="21" height="29" viewBox="0 0 21 29" fill="none" xmlns="http://www.w3.org/2000/svg">
<path fill-rule="evenodd" clip-rule="evenodd" d="M4.5 6C4.5 2.68629 7.18629 0 10.5 0C13.8137 0 16.5 2.68629 16.5 6V8C18.7091 8 20.5 9.79086 20.5 12V19C20.5 20.1046 19.6046 21 18.5 21C17.3954 21 16.5 20.1046 16.5 19V18C16.5 19.2267 16.1318 20.3675 15.5 21.3178V27C15.5 28.1046 14.6046 29 13.5 29C12.3954 29 11.5 28.1046 11.5 27V23.917C11.1748 23.9716 10.8407 24 10.5 24C10.1593 24 9.82521 23.9716 9.5 23.917V27C9.5 28.1046 8.60457 29 7.5 29C6.39543 29 5.5 28.1046 5.5 27V21.3178C4.86815 20.3675 4.5 19.2267 4.5 18V19C4.5 20.1046 3.60457 21 2.5 21C1.39543 21 0.5 20.1046 0.5 19V12C0.5 9.79086 2.29086 8 4.5 8V6Z" fill="white"/>
</svg>
